<svg width="64" height="65" viewBox="0 0 64 65" fill="none" xmlns="http://www.w3.org/2000/svg">
<path d="M53.3196 43.1231L44.2354 38.987V43.9503C44.2354 44.8279 43.896 45.6695 43.2919 46.29C42.6877 46.9105 41.8684 47.2592 41.014 47.2592L16.8539 47.2592C15.9996 47.2592 15.1802 46.9105 14.5761 46.29C13.972 45.6695 13.6326 44.8279 13.6326 43.9503L13.6326 20.7884C13.6326 19.9108 13.972 19.0692 14.5761 18.4487C15.1802 17.8282 15.9996 17.4796 16.8539 17.4796L41.014 17.4796C41.8684 17.4796 42.6877 17.8282 43.2919 18.4487C43.896 19.0692 44.2354 19.9108 44.2354 20.7884V25.7517L53.3196 21.6156C53.5645 21.5185 53.8288 21.4844 54.0895 21.5162C54.3501 21.548 54.5993 21.6448 54.8153 21.7981C55.0312 21.9514 55.2074 22.1566 55.3285 22.3959C55.4496 22.6351 55.5119 22.9011 55.5101 23.1708L55.5101 41.5679C55.5119 41.8376 55.4496 42.1036 55.3285 42.3428C55.2074 42.5821 55.0312 42.7873 54.8153 42.9406C54.5993 43.0939 54.3501 43.1907 54.0895 43.2225C53.8288 43.2543 53.5645 43.2202 53.3196 43.1231Z" fill="#003F51"/>
<path d="M22.1923 35.8835C25.3562 42.5693 30.2087 41.9803 33.0599 40.458C34.252 40.0157 35.7998 38.7972 35.251 36.4363C34.8264 34.6092 32.5339 34.4492 31.8603 34.7954C31.3213 35.0724 30.5603 35.6907 30.2472 35.9652C28.3828 36.8667 25.4205 37.3923 24.1403 34.3713C22.54 30.5949 25.9033 29.1705 26.9924 29.6327C27.8638 30.0024 28.8002 29.7255 29.1595 29.5408C30.0141 29.2151 31.5278 28.051 30.7462 26C29.9645 23.9491 27.8342 24.0902 26.8667 24.4171C23.6729 25.6044 19.0284 29.1976 22.1923 35.8835Z" fill="#F5CD85"/>
<path d="M38.7453 27.4773C38.7632 25.3936 36.9705 23.4834 34.7492 23.2193C34.705 23.2141 34.6569 23.2062 34.6059 23.1978C34.496 23.1798 34.3822 23.1613 34.2675 23.1613C33.8122 23.1613 33.6905 23.4779 33.6585 23.6667C33.6273 23.8503 33.657 24.0044 33.7466 24.1251C33.8974 24.3281 34.1627 24.3641 34.3758 24.393C34.4382 24.4015 34.4972 24.4095 34.5465 24.4204C36.5423 24.8619 37.2143 25.556 37.5427 27.5151C37.5508 27.5629 37.5544 27.6219 37.5582 27.6845C37.5726 27.9186 37.6024 28.4058 38.1315 28.4058H38.1316C38.1756 28.4058 38.2229 28.4021 38.2722 28.3946C38.7649 28.3205 38.7495 27.8752 38.7421 27.6612C38.74 27.6009 38.738 27.5439 38.7431 27.506C38.7445 27.4965 38.7452 27.4869 38.7453 27.4773Z" fill="#F5CD85"/>
<path d="M34.0789 22.4592C34.138 22.4635 34.1938 22.4676 34.2404 22.4747C37.5129 22.9791 39.0179 24.5331 39.435 27.8387C39.4421 27.8949 39.4432 27.9634 39.4443 28.036C39.4485 28.2943 39.4571 28.8315 40.0328 28.8427L40.0506 28.8428C40.2312 28.8428 40.3748 28.7883 40.4775 28.6805C40.6567 28.4927 40.6442 28.2136 40.6341 27.9893C40.6317 27.9343 40.6293 27.8824 40.6299 27.837C40.6715 24.4563 37.7517 21.3907 34.3816 21.2767C34.3676 21.2762 34.3542 21.2769 34.3408 21.2788C34.3342 21.2798 34.3219 21.281 34.3009 21.281C34.2673 21.281 34.2259 21.2781 34.1821 21.2751C34.1291 21.2715 34.069 21.2673 34.008 21.2673C33.4713 21.2673 33.3693 21.6497 33.3563 21.8776C33.3262 22.4043 33.8346 22.4414 34.0789 22.4592Z" fill="#F5CD85"/>
<path d="M34.5734 25.0555C34.3801 25.0602 33.9777 25.0699 33.8365 25.4681C33.7704 25.6542 33.7784 25.8158 33.86 25.9483C33.9799 26.1428 34.2095 26.2024 34.4184 26.2351C35.1759 26.3533 35.565 26.7603 35.6428 27.516C35.679 27.8683 35.9232 28.1144 36.2367 28.1144C36.2599 28.1144 36.2836 28.1131 36.3072 28.1103C36.6843 28.0667 36.8671 27.7975 36.8505 27.3102C36.8566 26.8017 36.5827 26.2243 36.1168 25.7645C35.6494 25.3032 35.0859 25.0434 34.5734 25.0555Z" fill="#F5CD85"/>
</svg>
